<svg width="60" height="60" viewBox="0 0 60 60" fill="none" xmlns="http://www.w3.org/2000/svg">
<path d="M44.1523 5.06832V46.1279L32.0975 58.1914H5.06832C3.37244 58.1914 2 56.819 2 55.1318V5.06832C2 3.37244 3.37244 2 5.06832 2H41.0927C42.7799 2 44.1523 3.37244 44.1523 5.06832Z" fill="#DEE9FF"/>
<path d="M44.1524 46.1277L32.0977 58.1912V48.2957C32.0977 47.7207 32.3261 47.1693 32.7326 46.7627C33.1392 46.3562 33.6906 46.1277 34.2656 46.1277H44.1524Z" fill="#262626"/>
<path d="M39.6693 32.526V41.8446C39.6693 42.7187 38.9613 43.4268 38.0958 43.4268H7.45631C6.59089 43.4268 5.88281 42.7187 5.88281 41.8446V32.526C5.88281 31.6518 6.59089 30.9437 7.45631 30.9437H38.0958C38.9613 30.9437 39.6693 31.6518 39.6693 32.526Z" fill="#4054F9"/>
<path d="M14.2517 20.8462H5.8824C5.76647 20.8462 5.6553 20.8001 5.57333 20.7181C5.49136 20.6362 5.44531 20.525 5.44531 20.4091C5.44531 20.2931 5.49136 20.182 5.57333 20.1C5.6553 20.018 5.76647 19.972 5.8824 19.972H14.2517C14.3676 19.972 14.4788 20.018 14.5607 20.1C14.6427 20.182 14.6887 20.2931 14.6887 20.4091C14.6887 20.525 14.6427 20.6362 14.5607 20.7181C14.4788 20.8001 14.3676 20.8462 14.2517 20.8462ZM14.2517 24.3245H5.8824C5.76647 24.3245 5.6553 24.2784 5.57333 24.1964C5.49136 24.1145 5.44531 24.0033 5.44531 23.8874C5.44531 23.7715 5.49136 23.6603 5.57333 23.5783C5.6553 23.4963 5.76647 23.4503 5.8824 23.4503H14.2517C14.3676 23.4503 14.4788 23.4963 14.5607 23.5783C14.6427 23.6603 14.6887 23.7715 14.6887 23.8874C14.6887 24.0033 14.6427 24.1145 14.5607 24.1964C14.4788 24.2784 14.3676 24.3245 14.2517 24.3245ZM14.2517 27.8036H5.8824C5.76647 27.8036 5.6553 27.7576 5.57333 27.6756C5.49136 27.5937 5.44531 27.4825 5.44531 27.3666C5.44531 27.2506 5.49136 27.1395 5.57333 27.0575C5.6553 26.9755 5.76647 26.9295 5.8824 26.9295H14.2517C14.3676 26.9295 14.4788 26.9755 14.5607 27.0575C14.6427 27.1395 14.6887 27.2506 14.6887 27.3666C14.6887 27.4825 14.6427 27.5937 14.5607 27.6756C14.4788 27.7576 14.3676 27.8036 14.2517 27.8036Z" fill="#262626"/>
<path d="M14.2573 7.89193V14.8678C14.2573 15.7332 13.558 16.4413 12.6838 16.4413H7.45631C6.59089 16.4413 5.88281 15.7332 5.88281 14.8678V7.89193C5.88281 7.01777 6.59089 6.30969 7.45631 6.30969H12.6838C13.558 6.30969 14.2573 7.01777 14.2573 7.89193ZM40.2725 7.89193V14.8678C40.2725 15.7332 39.5644 16.4413 38.6903 16.4413H33.4802C32.6061 16.4413 31.898 15.7332 31.898 14.8678V7.89193C31.898 7.01777 32.6061 6.30969 33.4802 6.30969H38.6903C39.5644 6.30969 40.2725 7.01777 40.2725 7.89193ZM27.2649 7.89193V14.8678C27.2649 15.7332 26.5568 16.4413 25.6914 16.4413H20.4639C19.6072 16.4413 18.8991 15.7332 18.8991 14.8678V7.89193C18.8991 7.01777 19.6072 6.30969 20.4639 6.30969H25.6914C26.5568 6.30969 27.2649 7.01777 27.2649 7.89193Z" fill="#262626"/>
<path d="M27.2601 20.8462H18.8917C18.7758 20.8462 18.6646 20.8001 18.5827 20.7181C18.5007 20.6362 18.4547 20.525 18.4547 20.4091C18.4547 20.2931 18.5007 20.182 18.5827 20.1C18.6646 20.018 18.7758 19.972 18.8917 19.972H27.2601C27.3761 19.972 27.4872 20.018 27.5692 20.1C27.6512 20.182 27.6972 20.2931 27.6972 20.4091C27.6972 20.525 27.6512 20.6362 27.5692 20.7181C27.4872 20.8001 27.3761 20.8462 27.2601 20.8462ZM27.2601 24.3245H18.8917C18.7758 24.3245 18.6646 24.2784 18.5827 24.1964C18.5007 24.1145 18.4547 24.0033 18.4547 23.8874C18.4547 23.7715 18.5007 23.6603 18.5827 23.5783C18.6646 23.4963 18.7758 23.4503 18.8917 23.4503H27.2601C27.3761 23.4503 27.4872 23.4963 27.5692 23.5783C27.6512 23.6603 27.6972 23.7715 27.6972 23.8874C27.6972 24.0033 27.6512 24.1145 27.5692 24.1964C27.4872 24.2784 27.3761 24.3245 27.2601 24.3245ZM27.2601 27.8036H18.8917C18.7758 27.8036 18.6646 27.7576 18.5827 27.6756C18.5007 27.5937 18.4547 27.4825 18.4547 27.3666C18.4547 27.2506 18.5007 27.1395 18.5827 27.0575C18.6646 26.9755 18.7758 26.9295 18.8917 26.9295H27.2601C27.3761 26.9295 27.4872 26.9755 27.5692 27.0575C27.6512 27.1395 27.6972 27.2506 27.6972 27.3666C27.6972 27.4825 27.6512 27.5937 27.5692 27.6756C27.4872 27.7576 27.3761 27.8036 27.2601 27.8036ZM40.2651 20.8462H31.8967C31.7808 20.8462 31.6696 20.8001 31.5876 20.7181C31.5057 20.6362 31.4596 20.525 31.4596 20.4091C31.4596 20.2931 31.5057 20.182 31.5876 20.1C31.6696 20.018 31.7808 19.972 31.8967 19.972H40.2651C40.381 19.972 40.4922 20.018 40.5742 20.1C40.6561 20.182 40.7022 20.2931 40.7022 20.4091C40.7022 20.525 40.6561 20.6362 40.5742 20.7181C40.4922 20.8001 40.381 20.8462 40.2651 20.8462ZM40.2651 24.3245H31.8967C31.7808 24.3245 31.6696 24.2784 31.5876 24.1964C31.5057 24.1145 31.4596 24.0033 31.4596 23.8874C31.4596 23.7715 31.5057 23.6603 31.5876 23.5783C31.6696 23.4963 31.7808 23.4503 31.8967 23.4503H40.2651C40.381 23.4503 40.4922 23.4963 40.5742 23.5783C40.6561 23.6603 40.7022 23.7715 40.7022 23.8874C40.7022 24.0033 40.6561 24.1145 40.5742 24.1964C40.4922 24.2784 40.381 24.3245 40.2651 24.3245ZM40.2651 27.8036H31.8967C31.7808 27.8036 31.6696 27.7576 31.5876 27.6756C31.5057 27.5937 31.4596 27.4825 31.4596 27.3666C31.4596 27.2506 31.5057 27.1395 31.5876 27.0575C31.6696 26.9755 31.7808 26.9295 31.8967 26.9295H40.2651C40.381 26.9295 40.4922 26.9755 40.5742 27.0575C40.6561 27.1395 40.7022 27.2506 40.7022 27.3666C40.7022 27.4825 40.6561 27.5937 40.5742 27.6756C40.4922 27.7576 40.381 27.8036 40.2651 27.8036ZM28.3327 48.6761H5.8824C5.76647 48.6761 5.6553 48.6301 5.57333 48.5481C5.49136 48.4661 5.44531 48.3549 5.44531 48.239C5.44531 48.1231 5.49136 48.0119 5.57333 47.93C5.6553 47.848 5.76647 47.8019 5.8824 47.8019H28.3327C28.4487 47.8019 28.5598 47.848 28.6418 47.93C28.7238 48.0119 28.7698 48.1231 28.7698 48.239C28.7698 48.3549 28.7238 48.4661 28.6418 48.5481C28.5598 48.6301 28.4487 48.6761 28.3327 48.6761ZM18.0176 53.4893H5.8824C5.76647 53.4893 5.6553 53.4432 5.57333 53.3612C5.49136 53.2793 5.44531 53.1681 5.44531 53.0522C5.44531 52.9363 5.49136 52.8251 5.57333 52.7431C5.6553 52.6611 5.76647 52.6151 5.8824 52.6151H18.0176C18.1335 52.6151 18.2447 52.6611 18.3266 52.7431C18.4086 52.8251 18.4547 52.9363 18.4547 53.0522C18.4547 53.1681 18.4086 53.2793 18.3266 53.3612C18.2447 53.4432 18.1335 53.4893 18.0176 53.4893Z" fill="#262626"/>
<path d="M57.0191 14.3608L56.9841 50.3065L52.6308 50.2977H51.7566L47.3945 50.289L47.4295 14.352C47.4295 13.1282 48.4173 12.1404 49.6411 12.1404L54.8075 12.1491C56.0226 12.1491 57.0191 13.1369 57.0191 14.3608Z" fill="#4054F9"/>
<path d="M57.0202 14.3608L57.0115 18.2333L47.4219 18.2246L47.4306 14.352C47.4306 13.1282 48.4184 12.1404 49.6423 12.1404L54.8086 12.1491C56.0237 12.1491 57.0202 13.1369 57.0202 14.3608Z" fill="#262626"/>
<path d="M47.4141 20.8627L47.4167 18.2227L57.0045 18.2323L57.0019 20.8723L47.4141 20.8627Z" fill="#F0F7FF"/>
<path d="M56.9843 50.3037L53.5095 57.3722C52.9623 58.4711 51.3993 58.4684 50.8547 57.3687L47.3965 50.2924L56.9843 50.3037Z" fill="#FFD86B"/>
<path d="M49.9648 55.5505L50.8539 57.3688C51.3985 58.4685 52.9615 58.4702 53.5087 57.3723L54.4021 55.5558L49.9648 55.5505Z" fill="#262626"/>
<path d="M52.6407 29.9383L52.632 50.2976H51.7578L51.7666 29.9383C51.7666 29.7023 51.9676 29.5012 52.2036 29.5012C52.4484 29.5012 52.6407 29.7023 52.6407 29.9383Z" fill="#262626"/>
</svg>
