<svg width="37" height="32" viewBox="0 0 37 32" fill="none" xmlns="http://www.w3.org/2000/svg">
<path d="M25 13C25 11.9 24.1 11 23 11H20.8C20.9 10.7 21 10.4 21 10C21 8.3 19.7 7 18 7C16.9 7 15.8 8.1 15 9.4C14.2 8.1 13.1 7 12 7C10.3 7 9 8.3 9 10C9 10.4 9.1 10.7 9.2 11H7C5.9 11 5 11.9 5 13V17H6V25C6 26.1 6.9 27 8 27H22C23.1 27 24 26.1 24 25V17H25V13ZM23 15H16V13H23V15ZM18 9C18.6 9 19 9.4 19 10C19 10.6 18.6 11 18 11H16.4C16.8 10.1 17.6 9.1 18 9ZM11 10C11 9.4 11.4 9 11.9 9C12.3 9.1 13.1 10.2 13.6 11H12C11.4 11 11 10.6 11 10ZM7 13H14V15H7V13ZM8 17H14V25H8V17ZM22 25H16V17H22V25Z" fill="#6D64D1"/>
<circle cx="27" cy="11" r="8" fill="#6D64D1" stroke="white" stroke-width="2"/>
<path d="M28.4253 7.44775V14H26.6147V9.70654C26.3218 9.9292 26.0376 10.1094 25.7622 10.2471C25.4897 10.3848 25.147 10.5166 24.7339 10.6426V9.1748C25.3433 8.97852 25.8164 8.74268 26.1533 8.46729C26.4902 8.19189 26.7539 7.85205 26.9443 7.44775H28.4253Z" fill="white"/>
</svg>
