<svg width="60" height="60" viewBox="0 0 60 60" fill="none" xmlns="http://www.w3.org/2000/svg">
<path d="M51.4683 11.4066L42.0748 10.711C41.9399 10.7011 41.8101 10.6559 41.6983 10.5798C41.5865 10.5038 41.4968 10.3996 41.4381 10.2779C41.3794 10.1561 41.3538 10.021 41.3639 9.8862C41.374 9.7514 41.4195 9.62164 41.4957 9.50999L43.0436 7.23761C33.0141 1.33051 20.1024 2.90916 11.7504 11.2611C3.15135 19.8593 1.74614 33.2922 8.2901 43.4401C8.38238 43.5895 8.41427 43.7683 8.37927 43.9404C8.34428 44.1124 8.24503 44.2646 8.10174 44.366L6.17529 45.6687C6.02166 45.7721 5.83327 45.8103 5.65147 45.775C5.46967 45.7397 5.3093 45.6337 5.20554 45.4803C-2.30723 33.8713 -0.700616 18.4988 9.14236 8.65587C18.755 -0.955863 33.6202 -2.73498 45.1285 4.18382L46.807 1.72308C46.8831 1.61069 46.9876 1.52042 47.1098 1.46142C47.2321 1.40242 47.3678 1.37678 47.5031 1.38709C47.6385 1.39741 47.7687 1.44332 47.8806 1.52017C47.9925 1.59702 48.0821 1.70208 48.1404 1.82471L52.2217 10.3072C52.2809 10.4291 52.3068 10.5644 52.2968 10.6995C52.2868 10.8345 52.2412 10.9646 52.1647 11.0763C52.0882 11.1881 51.9834 11.2776 51.8611 11.3358C51.7388 11.3939 51.6033 11.4187 51.4683 11.4075V11.4066Z" fill="#FFD86B"/>
<path d="M50.8466 50.3589C48.1067 53.1012 44.8527 55.276 41.271 56.7588C37.6892 58.2415 33.8502 59.0031 29.9737 59C24.6604 59.008 19.4455 57.567 14.8903 54.8319L13.2119 57.2926C13.1356 57.4048 13.0311 57.4948 12.9089 57.5535C12.7867 57.6123 12.6511 57.6378 12.5159 57.6274C12.3807 57.617 12.2507 57.5711 12.1389 57.4943C12.0271 57.4175 11.9376 57.3125 11.8794 57.1901L7.78314 48.7085C7.72549 48.5866 7.70075 48.4518 7.71139 48.3174C7.72203 48.183 7.76767 48.0537 7.84377 47.9425C7.91987 47.8312 8.02378 47.7418 8.14516 47.6831C8.26654 47.6245 8.40116 47.5986 8.53563 47.6082L17.9301 48.3029C18.5241 48.3467 18.857 49.0124 18.5241 49.5048L16.9753 51.7772C26.9917 57.6684 39.8894 56.0907 48.2404 47.7527C56.8395 39.1555 58.2578 25.7226 51.7297 15.5747C51.6803 15.5018 51.646 15.4198 51.6287 15.3335C51.6115 15.2472 51.6116 15.1583 51.6292 15.0721C51.6467 14.9859 51.6813 14.904 51.7309 14.8313C51.7805 14.7586 51.8441 14.6965 51.918 14.6487L53.8286 13.3461C54.1466 13.1288 54.596 13.2016 54.7984 13.5345C62.3111 25.1435 60.6896 40.5299 50.8466 50.3589Z" fill="#4054F9"/>
<path d="M24.8213 23.4208C24.2791 23.7502 23.7225 24.0604 23.0908 24.4413L22.7598 24.6406L22.9482 24.9785C23.6047 26.1566 25.456 28.8514 27.3525 31.4775C29.2492 34.1037 31.2261 36.709 32.1387 37.7021L32.3994 37.9863L32.6934 37.7353C33.2545 37.2551 33.7209 36.8241 34.2041 36.412L43.4199 46.0927C42.9954 46.5278 42.5301 46.9335 42.0361 47.331L42.0352 47.332C41.2779 47.9441 40.3739 48.221 39.4111 48.1962H39.4102C38.4514 48.1741 37.4973 48.1028 36.626 47.8476H36.627C33.7143 46.9804 31.1258 45.4474 28.8047 43.4931C25.9991 41.1274 23.6731 38.4522 21.624 35.6152C19.7029 32.9553 17.9942 30.1096 16.6641 26.956L16.4033 26.3212C15.2784 23.5042 14.6376 20.5655 14.7295 17.5292C14.7612 16.6217 14.9927 15.6924 15.2734 14.7763V14.7744C15.5522 13.8518 16.1001 13.0818 16.9199 12.5546V12.5536C17.4528 12.2099 17.9833 11.8955 18.5293 11.6298L24.8213 23.4208Z" fill="#DEE9FF" stroke="#262626" stroke-width="0.8"/>
<path d="M23.978 11.9017C25.1731 14.1368 26.3499 16.3816 27.5083 18.6359C28.3997 20.3703 27.7451 21.9387 25.9511 23.177C25.7534 23.3131 25.5567 23.4399 25.3525 23.5658L18.7031 11.1054C19.4211 10.7809 20.1755 10.5394 20.9876 10.4359C22.2996 10.2662 23.3495 10.7334 23.978 11.9017ZM44.8752 40.8367C43.129 38.9994 41.3679 37.1764 39.5919 35.3679C38.2259 33.9757 36.5316 34.1044 34.7917 35.4182C34.6005 35.5627 34.4187 35.7091 34.2341 35.8639L43.9726 46.0939C44.505 45.5148 44.9731 44.8742 45.3265 44.1357C45.9 42.944 45.7872 41.7999 44.8752 40.8367Z" fill="#262626"/>
<path d="M45.6757 19.0322V23.9537C45.6757 24.6378 45.404 25.2938 44.9203 25.7775C44.4366 26.2612 43.7806 26.5329 43.0966 26.5329H36.4323C36.223 26.5332 36.021 26.6094 35.8635 26.7474L32.8853 29.347C32.7601 29.4562 32.6062 29.5271 32.4418 29.5511C32.2775 29.5752 32.1097 29.5514 31.9585 29.4827C31.8072 29.414 31.679 29.3032 31.5891 29.1635C31.4991 29.0239 31.4512 28.8613 31.4512 28.6952V19.0322C31.4512 18.3482 31.7229 17.6922 32.2066 17.2085C32.6903 16.7248 33.3463 16.4531 34.0303 16.4531H43.0966C43.7806 16.4531 44.4366 16.7248 44.9203 17.2085C45.404 17.6922 45.6757 18.3482 45.6757 19.0322Z" fill="#4054F9"/>
<path d="M42.0995 20.6182H35.0287C34.9051 20.6182 34.7865 20.5691 34.6991 20.4817C34.6116 20.3943 34.5625 20.2757 34.5625 20.152C34.5625 20.0284 34.6116 19.9098 34.6991 19.8223C34.7865 19.7349 34.9051 19.6858 35.0287 19.6858H42.0995C42.2232 19.6858 42.3418 19.7349 42.4292 19.8223C42.5166 19.9098 42.5657 20.0284 42.5657 20.152C42.5657 20.2757 42.5166 20.3943 42.4292 20.4817C42.3418 20.5691 42.2232 20.6182 42.0995 20.6182ZM38.9133 23.7187H35.0287C34.9051 23.7187 34.7865 23.6695 34.6991 23.5821C34.6116 23.4947 34.5625 23.3761 34.5625 23.2524C34.5625 23.1288 34.6116 23.0102 34.6991 22.9228C34.7865 22.8353 34.9051 22.7862 35.0287 22.7862H38.9133C39.037 22.7862 39.1556 22.8353 39.243 22.9228C39.3304 23.0102 39.3796 23.1288 39.3796 23.2524C39.3796 23.3761 39.3304 23.4947 39.243 23.5821C39.1556 23.6695 39.037 23.7187 38.9133 23.7187Z" fill="white"/>
</svg>
