<svg width="31" height="25" viewBox="0 0 31 25" fill="none" xmlns="http://www.w3.org/2000/svg">
<path d="M20 11C20 9.9 19.1 9 18 9H15.8C15.9 8.7 16 8.4 16 8C16 6.3 14.7 5 13 5C11.9 5 10.8 6.1 10 7.4C9.2 6.1 8.1 5 7 5C5.3 5 4 6.3 4 8C4 8.4 4.1 8.7 4.2 9H2C0.9 9 0 9.9 0 11V15H1V23C1 24.1 1.9 25 3 25H17C18.1 25 19 24.1 19 23V15H20V11ZM18 13H11V11H18V13ZM13 7C13.6 7 14 7.4 14 8C14 8.6 13.6 9 13 9H11.4C11.8 8.1 12.6 7.1 13 7ZM6 8C6 7.4 6.4 7 6.9 7C7.3 7.1 8.1 8.2 8.6 9H7C6.4 9 6 8.6 6 8ZM2 11H9V13H2V11ZM3 15H9V23H3V15ZM17 23H11V15H17V23Z" fill="#6D64D1"/>
<circle cx="22" cy="9" r="8" fill="#6D64D1" stroke="white" stroke-width="2"/>
<path d="M23.4253 5.44775V12H21.6147V7.70654C21.3218 7.9292 21.0376 8.10938 20.7622 8.24707C20.4897 8.38477 20.147 8.5166 19.7339 8.64258V7.1748C20.3433 6.97852 20.8164 6.74268 21.1533 6.46729C21.4902 6.19189 21.7539 5.85205 21.9443 5.44775H23.4253Z" fill="white"/>
</svg>
