<svg width="7" height="7" viewBox="0 0 7 7" fill="none" xmlns="http://www.w3.org/2000/svg">
<g clip-path="url(#clip0_2270_7116)">
<circle cx="3.44494" cy="3.43945" r="2.7049" stroke="#8C8C8C" stroke-width="0.4918"/>
<path d="M4.29172 4.87555C4.267 4.87555 4.24266 4.86923 4.22079 4.85715L3.44467 4.42928L2.66855 4.85715C2.6434 4.87102 2.61506 4.87724 2.58672 4.8751C2.55838 4.87297 2.53117 4.86256 2.50818 4.84505C2.48519 4.82755 2.46733 4.80364 2.45661 4.77605C2.4459 4.74845 2.44277 4.71827 2.44757 4.6889L2.59583 3.78265L1.96783 3.14085C1.94749 3.12005 1.9331 3.0937 1.9263 3.06478C1.9195 3.03586 1.92055 3.00552 1.92934 2.97719C1.93813 2.94886 1.95431 2.92368 1.97603 2.90449C1.99776 2.8853 2.02418 2.87286 2.0523 2.8686L2.92002 2.73637L3.30816 1.91182C3.32214 1.8869 3.3421 1.86623 3.36604 1.85187C3.38999 1.83751 3.41709 1.82996 3.44467 1.82996C3.47226 1.82996 3.49936 1.83751 3.52331 1.85187C3.54725 1.86623 3.56721 1.8869 3.58119 1.91182L3.96933 2.73637L4.83705 2.8686C4.86517 2.87286 4.89159 2.8853 4.91332 2.90449C4.93505 2.92368 4.95122 2.94886 4.96001 2.97719C4.9688 3.00552 4.96985 3.03586 4.96305 3.06478C4.95625 3.0937 4.94186 3.12005 4.92152 3.14085L4.29352 3.78265L4.44178 4.6889C4.44552 4.71181 4.44445 4.73531 4.43863 4.75774C4.43282 4.78017 4.4224 4.801 4.40811 4.81878C4.39382 4.83655 4.37601 4.85084 4.35591 4.86065C4.3358 4.87046 4.3139 4.87554 4.29173 4.87556L4.29172 4.87555Z" fill="#8C8C8C"/>
</g>
<defs>
<clipPath id="clip0_2270_7116">
<rect width="6.8852" height="6.8852" fill="white"/>
</clipPath>
</defs>
</svg>
